PathFileType	4	(X/Y/Z)	45_2_106_p1_0-211_filt_butterworth.trc
DataRate	CameraRate	NumFrames	NumMarkers	Units	OrigDataRate	OrigDataStartFrame	OrigNumFrames
51.0	51.0	5	27	m	51.0	0	211
Frame#	Time	RHip			RKnee			RAnkle			RBigToe			RSmallToe			RHeel			LHip			LKnee			LAnkle			LBigToe			LSmallToe			LHeel			Neck			Head			Nose			RShoulder			RElbow			RWrist			RThumb			RIndex			RPinky			LShoulder			LElbow			LWrist			LThumb			LIndex			LPinky			
		X1	Y1	Z1	X2	Y2	Z2	X3	Y3	Z3	X4	Y4	Z4	X5	Y5	Z5	X6	Y6	Z6	X7	Y7	Z7	X8	Y8	Z8	X9	Y9	Z9	X10	Y10	Z10	X11	Y11	Z11	X12	Y12	Z12	X13	Y13	Z13	X14	Y14	Z14	X15	Y15	Z15	X16	Y16	Z16	X17	Y17	Z17	X18	Y18	Z18	X19	Y19	Z19	X20	Y20	Z20	X21	Y21	Z21	X22	Y22	Z22	X23	Y23	Z23	X24	Y24	Z24	X25	Y25	Z25	X26	Y26	Z26	X27	Y27	Z27	
0	0.0	0.5867842517686415	0.45921768468437474	0.8022893634896402	0.6055535938467467	0.04548738452471224	0.8021639028806102	0.6024501055163568	-0.30817402407028427	0.758217032766212	0.5892517560272732	-0.3161997663354314	0.5946839223683221	0.6527228179551444	-0.3283025192696579	0.6284686775257317	0.5788217421497729	-0.4004802355842519	0.8451661450872963	0.39277658900476803	0.4639130238325731	0.7721454769378759	0.42695059856457024	0.06715789416170687	0.7470738034709824	0.4291192806300169	-0.3404880007964897	0.7728430955951304	0.43959917449072916	-0.32245906596312734	0.5922446484186396	0.382675188156533	-0.3542817815801653	0.644145998899405	0.4477539784435173	-0.40642386259676083	0.8120397635616201	0.44307917366734156	1.031379979698441	0.8246311563425871	0.44447098323498413	1.2880147971548275	0.8012992886129763	0.4549371915106565	1.1764045168091226	0.7328887044618115	0.6088896131603819	0.9634866008523982	0.7984604212429904	0.6299727679514104	0.7227261939090784	0.7365201418357383	0.5041398181735639	0.5960157152389436	0.5794195811484721	0.4704412742503931	0.5523846693899431	0.4450291687229962	0.4328032371957756	0.4811407876375986	0.5410097894585131	0.424211858572092	0.48548601892769994	0.5422140151305388	0.29657657279583327	0.9689872509781272	0.7759744191845255	0.2962168904632811	0.7220981773909831	0.7426055974993806	0.45163943068793405	0.5531732291033948	0.6502495392049088	0.536702451376362	0.46404764112467817	0.628493726688093	0.5228565623001507	0.4446988945185279	0.6173509427241497	0.48665211700710426	0.4032270170076407	0.7028140605982156	
1	0.0196078431372549	0.587420585228053	0.46167182299525544	0.8010299582048361	0.6053036712626538	0.04635838358821637	0.8023116395643576	0.6008046199620968	-0.3100555756779414	0.7585413084131072	0.5907565884385747	-0.3191545992282184	0.5968179121436785	0.6505745224921708	-0.33423441671642484	0.6350259437126808	0.5785380954243166	-0.40055822417962855	0.8431282307266008	0.3933196657260593	0.4640085117862839	0.7722947930303068	0.42637075931813734	0.06818899193710831	0.7476031210870029	0.4294692109169592	-0.34090730599914615	0.772881128502793	0.438957395234683	-0.31948591816592964	0.5900048814224258	0.38313431539324855	-0.353441366816144	0.6430180966566909	0.4477560655205444	-0.40648488186718656	0.8120784435360353	0.44308421718576063	1.0313789233007096	0.8246867987467486	0.4444595386816578	1.2879857929522358	0.8011890609762071	0.456519747533909	1.177877821148332	0.7334652765236718	0.6068209716084896	0.9614870057572742	0.8042028851473333	0.6312706247978113	0.72687143594345	0.7377666912632812	0.4998140364256912	0.5938091736137792	0.5870028331351731	0.49466048596222806	0.5847526722800891	0.4078526738022944	0.4329733606578858	0.48285917997724304	0.5380243621973781	0.421597863323829	0.4846788646020525	0.5415504561065732	0.2968256865860314	0.9689707848380319	0.7761098230097483	0.296744899707552	0.7205859437056212	0.7422149205010391	0.45307295596828345	0.5509058902945707	0.6645098399258731	0.5349195421413432	0.4655739988282895	0.6395708796915549	0.5157607663832744	0.43314884999808795	0.6454667194180759	0.4771644485936102	0.39616594015744633	0.7245319046181263	
2	0.0392156862745098	0.587982818584988	0.46383276998187095	0.7997925092798086	0.6051142841039746	0.047072126986143714	0.8025657488033557	0.5994215322702242	-0.31158200807927167	0.7587084370844154	0.5918302140639791	-0.32118509695086045	0.5979496710454724	0.6492684107754441	-0.33801902908613174	0.6392262141092532	0.5782624183054972	-0.4005875792774486	0.8412958964746444	0.3937747957188608	0.46409908183989995	0.7724082965351416	0.42587983570956073	0.06901323897919731	0.7480677092755711	0.42974521448478786	-0.3412813925498849	0.7729067486097922	0.43845855501014325	-0.316994016137165	0.5877248024197355	0.383953018114293	-0.3516518246477037	0.6410101686720586	0.4477575023497992	-0.4065394926042024	0.8121005401444996	0.44308298934996593	1.031374239932548	0.8247273380082931	0.4444596022970087	1.2879644176678664	0.8011272606164128	0.45756223672674357	1.178756140477776	0.7340078237592053	0.605620699114607	0.9601727468622168	0.8080693506695873	0.6322202050900875	0.7299916751624593	0.7386972725665156	0.4967625999555623	0.5918509393923642	0.5939647021120285	0.4967895786298742	0.5925711474906428	0.40350803678429503	0.4324077273824496	0.4835400979697208	0.5375239001577244	0.42070976279693467	0.4814245808730136	0.5468220263648003	0.2968991845481676	0.9689649029120146	0.7761818999774078	0.29753128018282543	0.7208318421705712	0.7404527878662414	0.45378051222641635	0.550127908694452	0.6739366016941452	0.5338326227953261	0.4671608741443761	0.6475576948977229	0.5122577490627974	0.4271618269367555	0.6640731423327667	0.47063393330553766	0.39368611399815967	0.7365159115374487	
3	0.0588235294117647	0.5884753044005789	0.4657183113064753	0.7985828996933584	0.6049797746471433	0.04764149473869422	0.8029119658016624	0.5982808733185484	-0.3127831911738146	0.7587357597203542	0.5925198363218431	-0.32240997451533926	0.5983032779123411	0.6486378959219751	-0.34006377103141433	0.6415152839837122	0.5779934106603235	-0.4005763462752833	0.8396651632719948	0.39414878043652846	0.4641847388654603	0.7724891663874941	0.4254715039855496	0.0696478019600944	0.7484717734297033	0.42995405455044494	-0.34161439846337727	0.772921394192565	0.43807826497227015	-0.3149541136878214	0.5855071233152971	0.3849987786189469	-0.34925622192357	0.638441743123942	0.4477582123036865	-0.40658869342329773	0.8121089398774505	0.4430772751754246	1.0313669185876664	0.8247552486626444	0.44446799885096966	1.2879494453107214	0.8011035363031485	0.4581579749396762	1.1791657279757308	0.7344752127304439	0.605104974563416	0.959416147616382	0.8103978717868421	0.6328430278292153	0.7322652839262315	0.7393440093643797	0.4948242810266013	0.590069799788943	0.600362166552859	0.48292762809495854	0.5820216773927933	0.4237290363100124	0.43157970213718366	0.4831062126029644	0.539640441635249	0.4213020462730736	0.47636933100196077	0.556652327072945	0.2968507219544129	0.96896640538325	0.7762099559652257	0.2984689854827628	0.7223387513901969	0.7378892609818823	0.45387236978434115	0.5505622922761807	0.6791930197266678	0.5333431235940074	0.4686728061432016	0.6529343334981752	0.5115008354403728	0.4254568298097122	0.6750099891794293	0.46642239151918236	0.3949351459199211	0.7403880252497148	
4	0.0784313725490196	0.5889023952359577	0.46734623263132247	0.7974070124242854	0.6048944851685937	0.04807936686606812	0.8033360257633351	0.5973626739848789	-0.31368899486110957	0.7586406172611423	0.592872658630524	-0.3229479469336369	0.5981028115829219	0.6485163910487751	-0.3407760572049082	0.6423389486043217	0.5777297723558047	-0.4005325705707035	0.8382320520592209	0.39444842133241825	0.464265487735004	0.7725405815224777	0.42513944039281326	0.07010984755191985	0.7488195189424163	0.4301024943308725	-0.3419104617542939	0.7729265035275484	0.43779213627622404	-0.3133369646288865	0.5834545560138394	0.3861390792064909	-0.34659762549246825	0.6356323481907743	0.44775811875461113	-0.40663348293996193	0.812106529225325	0.443068859677604	1.0313579482597743	0.8247730052452252	0.4444815531134735	1.287939649889802	0.801107536805969	0.45840027802322286	1.179232836820473	0.7348263099994203	0.6050899768395985	0.9590895314689264	0.8115265024761869	0.6331606120161708	0.7338706345948925	0.7397390252758118	0.49383785190223245	0.5883945420177599	0.6062522049314855	0.4591737101991079	0.5592858443577299	0.46024945102046055	0.4309626496898046	0.4814801948649058	0.5445060249256491	0.42312920303391033	0.47015927825027126	0.5696649593987325	0.2967339540769385	0.9689720924349112	0.7762132968509231	0.29945096920102526	0.7246095499688617	0.7350944012348568	0.4534587989640662	0.5519320490128992	0.6809422892403837	0.5333524747930835	0.46997433389502896	0.6561809566844901	0.5126433506176536	0.42675286309213956	0.6801170376692711	0.46389164361083973	0.3990606433128707	0.7377701896484561	
